<svg xmlns="http://www.w3.org/2000/svg" version="1.1" xmlns:xlink="http://www.w3.org/1999/xlink" width="512" height="512" x="0" y="0" viewBox="0 0 512 512" style="enable-background:new 0 0 512 512" xml:space="preserve" class=""><g><path d="M256.001 68.322c-51.445 0-93.299 41.854-93.299 93.299s41.854 93.299 93.299 93.299 93.299-41.854 93.299-93.299-41.854-93.299-93.299-93.299zm-67.167 85.12 24.598-23.102a8 8 0 1 1 10.953 11.662l-18.843 17.697 17.445 19.078a8 8 0 0 1-11.807 10.797l-22.772-24.903a7.999 7.999 0 0 1 .427-11.229zm57.085 48.795a8 8 0 0 1-7.645-10.365l20.167-65.229c1.305-4.221 5.783-6.59 10.006-5.279a8 8 0 0 1 5.28 10.006l-20.167 65.229a8.004 8.004 0 0 1-7.641 5.639zm47.174-7.168a8 8 0 0 1-5.478-13.832l18.844-17.695-17.444-19.079a8.002 8.002 0 0 1 .506-11.303 8.001 8.001 0 0 1 11.302.506l22.771 24.905a8 8 0 0 1-.428 11.23l-24.599 23.1a7.975 7.975 0 0 1-5.475 2.168zm62.002 94.609 28.961-28.96c5.065-5.065 5.065-13.307 0-18.371l-10.024-10.025a136 136 0 0 0 15.433-37.231h14.166c7.163 0 12.991-5.827 12.991-12.99v-40.957c0-7.163-5.828-12.99-12.991-12.99h-14.167a135.985 135.985 0 0 0-15.432-37.231L384.054 80.9a12.902 12.902 0 0 0 3.803-9.187c0-3.473-1.35-6.734-3.8-9.185l-28.961-28.963c-5.065-5.064-13.306-5.063-18.371 0L326.7 43.59a136.038 136.038 0 0 0-37.231-15.434V13.991c0-7.163-5.828-12.99-12.99-12.99h-40.957c-7.163 0-12.99 5.827-12.99 12.99v14.165a135.982 135.982 0 0 0-37.233 15.433l-10.024-10.024c-5.064-5.064-13.306-5.063-18.371 0l-28.961 28.961c-5.064 5.064-5.064 13.305 0 18.372l10.024 10.024a135.976 135.976 0 0 0-15.434 37.231h-14.164c-7.163 0-12.991 5.827-12.991 12.99V182.1c0 7.163 5.828 12.99 12.991 12.99h14.164a135.982 135.982 0 0 0 15.433 37.233l-10.022 10.022c-2.452 2.45-3.802 5.713-3.802 9.186s1.35 6.736 3.801 9.186l28.96 28.962c5.065 5.065 13.307 5.065 18.371 0l10.024-10.023a136.025 136.025 0 0 0 37.233 15.434v14.163c0 7.163 5.828 12.99 12.99 12.99h40.957c7.163 0 12.99-5.827 12.99-12.99v-14.164a135.95 135.95 0 0 0 37.232-15.433l10.023 10.023c5.064 5.063 13.305 5.065 18.371 0zm-31.706-26.863c-13.256 8.849-27.886 14.913-43.485 18.024a8.001 8.001 0 0 0-6.435 7.846v17.556h-34.937v-17.556a8 8 0 0 0-6.436-7.846c-15.59-3.107-30.221-9.172-43.485-18.024a8.003 8.003 0 0 0-10.098.998l-12.423 12.423-24.704-24.704 12.423-12.423a8 8 0 0 0 .997-10.099c-8.85-13.258-14.914-27.889-18.023-43.485a8.001 8.001 0 0 0-7.846-6.436H111.38v-34.938h17.557a8 8 0 0 0 7.846-6.437c3.107-15.588 9.171-30.218 18.024-43.484a8 8 0 0 0-.998-10.098l-12.424-12.423 24.705-24.705 12.423 12.424a8.003 8.003 0 0 0 10.098.997c13.257-8.849 27.888-14.913 43.485-18.023a8 8 0 0 0 6.436-7.846V16.998h34.937v17.558a8 8 0 0 0 6.436 7.846c15.588 3.107 30.218 9.172 43.484 18.024a7.997 7.997 0 0 0 10.097-.997l12.425-12.425 24.704 24.705-12.424 12.425a8 8 0 0 0-.997 10.098c8.848 13.257 14.912 27.887 18.023 43.483a8 8 0 0 0 7.845 6.436h17.559v34.938h-17.559a8 8 0 0 0-7.846 6.436c-3.107 15.588-9.171 30.219-18.024 43.485a8 8 0 0 0 .998 10.097l12.423 12.424-24.705 24.704-12.423-12.423a8.003 8.003 0 0 0-10.098-.997zm-37.445 137.001a8 8 0 0 1 0 11.314l-24.287 24.287c-1.562 1.562-3.609 2.343-5.657 2.343s-4.095-.781-5.657-2.343l-24.287-24.287a8 8 0 0 1 11.313-11.314L248 410.447v-59.086a8 8 0 0 1 16 0v59.085l10.63-10.63a8.001 8.001 0 0 1 11.313 0zm115.962 55.898c-15.242 0-27.643 12.4-27.643 27.643s12.401 27.644 27.643 27.644 27.643-12.4 27.643-27.644-12.401-27.643-27.643-27.643zm0 39.286c-6.42 0-11.643-5.224-11.643-11.644s5.223-11.643 11.643-11.643 11.643 5.223 11.643 11.643S408.326 495 401.906 495zm-291.812-39.286c-15.242 0-27.643 12.4-27.643 27.643s12.401 27.644 27.643 27.644 27.643-12.4 27.643-27.644-12.401-27.643-27.643-27.643zm0 39.286c-6.42 0-11.643-5.224-11.643-11.644s5.223-11.643 11.643-11.643 11.643 5.223 11.643 11.643S116.514 495 110.094 495zm279.854-57.512-33.177-8.89a8 8 0 1 1 4.141-15.455l14.521 3.891-42.582-73.753a8 8 0 0 1 13.856-8l42.582 73.753 3.891-14.521a8 8 0 1 1 15.455 4.141l-8.89 33.177a8.004 8.004 0 0 1-7.723 5.932 8.035 8.035 0 0 1-2.075-.274zm-210.8-94.207-42.582 73.753 14.522-3.891a8 8 0 0 1 4.141 15.455l-33.177 8.89a7.993 7.993 0 0 1-6.07-.8 8.006 8.006 0 0 1-3.728-4.857l-8.889-33.177a8 8 0 0 1 15.455-4.141l3.89 14.521 42.581-73.753a8 8 0 0 1 13.856 8zm76.853 112.433c-15.242 0-27.643 12.4-27.643 27.643s12.4 27.644 27.643 27.644 27.642-12.4 27.642-27.644-12.4-27.643-27.642-27.643zm0 39.286c-6.42 0-11.643-5.224-11.643-11.644s5.223-11.643 11.643-11.643 11.642 5.223 11.642 11.643S262.42 495 256.001 495z" fill="#a902cd" opacity="1" data-original="#000000" class=""></path></g></svg>